<svg
  xmlns="http://www.w3.org/2000/svg"
  viewBox="0 0 64 64"
  fill="none"
>
  <defs>
    <linearGradient id="bg" x1="10" y1="6" x2="54" y2="58" gradientUnits="userSpaceOnUse">
      <stop stop-color="#27343C" />
      <stop offset="1" stop-color="#11181D" />
    </linearGradient>
    <linearGradient id="metal" x1="24" y1="12" x2="40" y2="42" gradientUnits="userSpaceOnUse">
      <stop stop-color="#E6C78D" />
      <stop offset="1" stop-color="#B88E4D" />
    </linearGradient>
    <radialGradient id="glow" cx="0" cy="0" r="1" gradientUnits="userSpaceOnUse" gradientTransform="translate(32 29) rotate(90) scale(11)">
      <stop stop-color="#FFF6D9" />
      <stop offset="1" stop-color="#E8BE73" />
    </radialGradient>
    <linearGradient id="water" x1="20" y1="44" x2="44" y2="52" gradientUnits="userSpaceOnUse">
      <stop stop-color="#7AA6B8" />
      <stop offset="1" stop-color="#426C7C" />
    </linearGradient>
  </defs>

  <rect
    x="2"
    y="2"
    width="60"
    height="60"
    rx="18"
    fill="url(#bg)"
    stroke="#BACCD4"
    stroke-opacity="0.22"
  />

  <path
    d="M29 14.5H35"
    stroke="url(#metal)"
    stroke-linecap="round"
    stroke-width="2.4"
  />
  <path
    d="M27 18H37L35.6 23.2V38.8H28.4V23.2L27 18Z"
    fill="#141C21"
    fill-opacity="0.72"
    stroke="url(#metal)"
    stroke-linejoin="round"
    stroke-width="2.4"
  />
  <path
    d="M30 18V14.6C30 13.2 30.9 12 32 12C33.1 12 34 13.2 34 14.6V18"
    stroke="url(#metal)"
    stroke-linecap="round"
    stroke-width="2.4"
  />
  <path
    d="M27.5 23.3H36.5"
    stroke="url(#metal)"
    stroke-linecap="round"
    stroke-width="2"
  />
  <circle cx="32" cy="29.2" r="5.8" fill="url(#glow)" />

  <path
    d="M18 44.5C21.2 42.7 24.6 42.7 28 44.5C31.4 46.3 34.8 46.3 38.2 44.5C41.6 42.7 45 42.7 48 44.5"
    stroke="url(#water)"
    stroke-linecap="round"
    stroke-width="2.3"
  />
  <path
    d="M18 49.5C21.2 47.7 24.6 47.7 28 49.5C31.4 51.3 34.8 51.3 38.2 49.5C41.6 47.7 45 47.7 48 49.5"
    stroke="url(#water)"
    stroke-linecap="round"
    stroke-opacity="0.84"
    stroke-width="2"
  />
</svg>
